<svg width="48" height="48" viewBox="0 0 48 48" fill="none" xmlns="http://www.w3.org/2000/svg">
<path d="M38.0944 21.1058L12.276 10.2418C11.1883 9.7841 9.95946 9.98545 9.06915 10.7671C8.17884 11.5488 7.80646 12.7533 8.09746 13.9104L10.3955 23.0493H21.6472C22.1649 23.0493 22.5847 23.4749 22.5847 24C22.5847 24.5251 22.165 24.9508 21.6472 24.9508H10.3955L8.09746 34.0896C7.80646 35.2468 8.17877 36.4513 9.06915 37.233C9.96128 38.0161 11.1902 38.215 12.276 37.7582L38.0944 26.8943C39.2699 26.3997 40.0001 25.2906 40.0001 24C40.0001 22.7094 39.2699 21.6003 38.0944 21.1058Z" fill="white"/>
</svg>
